<mxfile>
    <diagram id="VgXl4IBO83FlVjjblhn9" name="Página-1">
        <mxGraphModel dx="1118" dy="800" grid="1" gridSize="10" guides="1" tooltips="1" connect="1" arrows="1" fold="1" page="1" pageScale="1" pageWidth="1654" pageHeight="1000" math="0" shadow="0">
            <root>
                <mxCell id="0"/>
                <mxCell id="1" parent="0"/>
                <mxCell id="2" value="Rol" style="swimlane;fontStyle=1;align=center;verticalAlign=top;childLayout=stackLayout;horizontal=1;startSize=26;horizontalStack=0;resizeParent=1;resizeParentMax=0;resizeLast=0;collapsible=1;marginBottom=0;" parent="1" vertex="1">
                    <mxGeometry x="60" y="50" width="160" height="180" as="geometry"/>
                </mxCell>
                <mxCell id="3" value="+ RolID: INT&#10;+ Nombre: VARCHAR(50)&#10;+ Descripción: varchar(100)&#10;&#10;" style="text;strokeColor=none;fillColor=none;align=left;verticalAlign=top;spacingLeft=4;spacingRight=4;overflow=hidden;rotatable=0;points=[[0,0.5],[1,0.5]];portConstraint=eastwest;" parent="2" vertex="1">
                    <mxGeometry y="26" width="160" height="64" as="geometry"/>
                </mxCell>
                <mxCell id="4" value="" style="line;strokeWidth=1;fillColor=none;align=left;verticalAlign=middle;spacingTop=-1;spacingLeft=3;spacingRight=3;rotatable=0;labelPosition=right;points=[];portConstraint=eastwest;" parent="2" vertex="1">
                    <mxGeometry y="90" width="160" height="8" as="geometry"/>
                </mxCell>
                <mxCell id="5" value="+ Alta()&#10;+ Modificación()&#10;+ Baja()&#10;+ Consulta()&#10;" style="text;strokeColor=none;fillColor=none;align=left;verticalAlign=top;spacingLeft=4;spacingRight=4;overflow=hidden;rotatable=0;points=[[0,0.5],[1,0.5]];portConstraint=eastwest;" parent="2" vertex="1">
                    <mxGeometry y="98" width="160" height="82" as="geometry"/>
                </mxCell>
                <mxCell id="6" value="Usuario" style="swimlane;fontStyle=1;align=center;verticalAlign=top;childLayout=stackLayout;horizontal=1;startSize=26;horizontalStack=0;resizeParent=1;resizeParentMax=0;resizeLast=0;collapsible=1;marginBottom=0;" parent="1" vertex="1">
                    <mxGeometry x="370" y="50" width="220" height="180" as="geometry"/>
                </mxCell>
                <mxCell id="7" value="+ UserID: INT&#10;+ Contraseña: VARCHAR(50)&#10;+ RolID: INT" style="text;strokeColor=none;fillColor=none;align=left;verticalAlign=top;spacingLeft=4;spacingRight=4;overflow=hidden;rotatable=0;points=[[0,0.5],[1,0.5]];portConstraint=eastwest;" parent="6" vertex="1">
                    <mxGeometry y="26" width="220" height="64" as="geometry"/>
                </mxCell>
                <mxCell id="8" value="" style="line;strokeWidth=1;fillColor=none;align=left;verticalAlign=middle;spacingTop=-1;spacingLeft=3;spacingRight=3;rotatable=0;labelPosition=right;points=[];portConstraint=eastwest;" parent="6" vertex="1">
                    <mxGeometry y="90" width="220" height="8" as="geometry"/>
                </mxCell>
                <mxCell id="9" value="+ Alta()&#10;+ Modificación()&#10;+ Baja()&#10;+ Consulta()" style="text;strokeColor=none;fillColor=none;align=left;verticalAlign=top;spacingLeft=4;spacingRight=4;overflow=hidden;rotatable=0;points=[[0,0.5],[1,0.5]];portConstraint=eastwest;" parent="6" vertex="1">
                    <mxGeometry y="98" width="220" height="82" as="geometry"/>
                </mxCell>
                <mxCell id="18" value="Inscripción" style="swimlane;fontStyle=1;align=center;verticalAlign=top;childLayout=stackLayout;horizontal=1;startSize=26;horizontalStack=0;resizeParent=1;resizeParentMax=0;resizeLast=0;collapsible=1;marginBottom=0;" parent="1" vertex="1">
                    <mxGeometry x="760" y="53" width="160" height="154" as="geometry"/>
                </mxCell>
                <mxCell id="19" value="+ InscripcionID: INT&#10;+ CursoID: INT&#10;+ UserID: INT&#10;+ Fecha: DATE" style="text;strokeColor=none;fillColor=none;align=left;verticalAlign=top;spacingLeft=4;spacingRight=4;overflow=hidden;rotatable=0;points=[[0,0.5],[1,0.5]];portConstraint=eastwest;" parent="18" vertex="1">
                    <mxGeometry y="26" width="160" height="94" as="geometry"/>
                </mxCell>
                <mxCell id="20" value="" style="line;strokeWidth=1;fillColor=none;align=left;verticalAlign=middle;spacingTop=-1;spacingLeft=3;spacingRight=3;rotatable=0;labelPosition=right;points=[];portConstraint=eastwest;" parent="18" vertex="1">
                    <mxGeometry y="120" width="160" height="8" as="geometry"/>
                </mxCell>
                <mxCell id="21" value="+ Consulta()" style="text;strokeColor=none;fillColor=none;align=left;verticalAlign=top;spacingLeft=4;spacingRight=4;overflow=hidden;rotatable=0;points=[[0,0.5],[1,0.5]];portConstraint=eastwest;" parent="18" vertex="1">
                    <mxGeometry y="128" width="160" height="26" as="geometry"/>
                </mxCell>
                <mxCell id="23" value="&lt;b&gt;&lt;font style=&quot;font-size: 17px&quot;&gt;1&lt;/font&gt;&lt;/b&gt;" style="text;html=1;align=center;verticalAlign=middle;resizable=0;points=[];autosize=1;" parent="1" vertex="1">
                    <mxGeometry x="230" y="110" width="20" height="20" as="geometry"/>
                </mxCell>
                <mxCell id="24" value="&lt;b&gt;&lt;font style=&quot;font-size: 20px&quot;&gt;*&lt;/font&gt;&lt;/b&gt;" style="text;html=1;align=center;verticalAlign=middle;resizable=0;points=[];autosize=1;" parent="1" vertex="1">
                    <mxGeometry x="340" y="110" width="20" height="20" as="geometry"/>
                </mxCell>
                <mxCell id="25" value="&lt;b&gt;&lt;font style=&quot;font-size: 20px&quot;&gt;*&lt;/font&gt;&lt;/b&gt;" style="text;html=1;align=center;verticalAlign=middle;resizable=0;points=[];autosize=1;" parent="1" vertex="1">
                    <mxGeometry x="730" y="120" width="20" height="20" as="geometry"/>
                </mxCell>
                <mxCell id="26" value="&lt;b&gt;&lt;font style=&quot;font-size: 17px&quot;&gt;1&lt;/font&gt;&lt;/b&gt;" style="text;html=1;align=center;verticalAlign=middle;resizable=0;points=[];autosize=1;" parent="1" vertex="1">
                    <mxGeometry x="600" y="110" width="20" height="20" as="geometry"/>
                </mxCell>
                <mxCell id="27" value="Curso" style="swimlane;fontStyle=1;align=center;verticalAlign=top;childLayout=stackLayout;horizontal=1;startSize=26;horizontalStack=0;resizeParent=1;resizeParentMax=0;resizeLast=0;collapsible=1;marginBottom=0;" parent="1" vertex="1">
                    <mxGeometry x="735" y="297" width="210" height="210" as="geometry"/>
                </mxCell>
                <mxCell id="28" value="+ CursoID: INT&#10;+ Nombre: VARCHAR(50)&#10;+ Descripción: VARCHAR(100)&#10;+ CategoriaID: INT&#10;+ MatApyID: INT" style="text;strokeColor=none;fillColor=none;align=left;verticalAlign=top;spacingLeft=4;spacingRight=4;overflow=hidden;rotatable=0;points=[[0,0.5],[1,0.5]];portConstraint=eastwest;" parent="27" vertex="1">
                    <mxGeometry y="26" width="210" height="94" as="geometry"/>
                </mxCell>
                <mxCell id="29" value="" style="line;strokeWidth=1;fillColor=none;align=left;verticalAlign=middle;spacingTop=-1;spacingLeft=3;spacingRight=3;rotatable=0;labelPosition=right;points=[];portConstraint=eastwest;" parent="27" vertex="1">
                    <mxGeometry y="120" width="210" height="8" as="geometry"/>
                </mxCell>
                <mxCell id="30" value="+ Alta()&#10;+ Modificación()&#10;+ Baja()&#10;+ Consulta()" style="text;strokeColor=none;fillColor=none;align=left;verticalAlign=top;spacingLeft=4;spacingRight=4;overflow=hidden;rotatable=0;points=[[0,0.5],[1,0.5]];portConstraint=eastwest;" parent="27" vertex="1">
                    <mxGeometry y="128" width="210" height="82" as="geometry"/>
                </mxCell>
                <mxCell id="32" value="&lt;b&gt;&lt;font style=&quot;font-size: 20px&quot;&gt;*&lt;/font&gt;&lt;/b&gt;" style="text;html=1;align=center;verticalAlign=middle;resizable=0;points=[];autosize=1;" parent="1" vertex="1">
                    <mxGeometry x="840" y="220" width="20" height="20" as="geometry"/>
                </mxCell>
                <mxCell id="35" value="&lt;b&gt;&lt;font style=&quot;font-size: 20px&quot;&gt;*&lt;/font&gt;&lt;/b&gt;" style="text;html=1;align=center;verticalAlign=middle;resizable=0;points=[];autosize=1;" parent="1" vertex="1">
                    <mxGeometry x="840" y="270" width="20" height="20" as="geometry"/>
                </mxCell>
                <mxCell id="36" value="Categoría" style="swimlane;fontStyle=1;align=center;verticalAlign=top;childLayout=stackLayout;horizontal=1;startSize=26;horizontalStack=0;resizeParent=1;resizeParentMax=0;resizeLast=0;collapsible=1;marginBottom=0;" parent="1" vertex="1">
                    <mxGeometry x="460" y="560" width="210" height="190" as="geometry"/>
                </mxCell>
                <mxCell id="37" value="+ CategoriaID: INT&#10;+ Nombre: VARCHAR(50)&#10;+ Descripción: VARCHAR(100)&#10;" style="text;strokeColor=none;fillColor=none;align=left;verticalAlign=top;spacingLeft=4;spacingRight=4;overflow=hidden;rotatable=0;points=[[0,0.5],[1,0.5]];portConstraint=eastwest;" parent="36" vertex="1">
                    <mxGeometry y="26" width="210" height="74" as="geometry"/>
                </mxCell>
                <mxCell id="38" value="" style="line;strokeWidth=1;fillColor=none;align=left;verticalAlign=middle;spacingTop=-1;spacingLeft=3;spacingRight=3;rotatable=0;labelPosition=right;points=[];portConstraint=eastwest;" parent="36" vertex="1">
                    <mxGeometry y="100" width="210" height="8" as="geometry"/>
                </mxCell>
                <mxCell id="39" value="+ Alta()&#10;+ Modificación()&#10;+ Baja()&#10;+ Consulta()" style="text;strokeColor=none;fillColor=none;align=left;verticalAlign=top;spacingLeft=4;spacingRight=4;overflow=hidden;rotatable=0;points=[[0,0.5],[1,0.5]];portConstraint=eastwest;" parent="36" vertex="1">
                    <mxGeometry y="108" width="210" height="82" as="geometry"/>
                </mxCell>
                <mxCell id="42" value="&lt;b&gt;&lt;font style=&quot;font-size: 17px&quot;&gt;1&lt;/font&gt;&lt;/b&gt;" style="text;html=1;align=center;verticalAlign=middle;resizable=0;points=[];autosize=1;" parent="1" vertex="1">
                    <mxGeometry x="670" y="630" width="20" height="20" as="geometry"/>
                </mxCell>
                <mxCell id="44" value="&lt;b&gt;&lt;font style=&quot;font-size: 20px&quot;&gt;*&lt;/font&gt;&lt;/b&gt;" style="text;html=1;align=center;verticalAlign=middle;resizable=0;points=[];autosize=1;" parent="1" vertex="1">
                    <mxGeometry x="807" y="520" width="20" height="20" as="geometry"/>
                </mxCell>
                <mxCell id="46" value="Material de apoyo" style="swimlane;fontStyle=1;align=center;verticalAlign=top;childLayout=stackLayout;horizontal=1;startSize=26;horizontalStack=0;resizeParent=1;resizeParentMax=0;resizeLast=0;collapsible=1;marginBottom=0;" parent="1" vertex="1">
                    <mxGeometry x="1070" y="545" width="210" height="190" as="geometry"/>
                </mxCell>
                <mxCell id="47" value="+ MatApyID: INT&#10;+ Nombre: VARCHAR(50)&#10;+ Descripción: VARCHAR(100)&#10;+ Archivo: FILE" style="text;strokeColor=none;fillColor=none;align=left;verticalAlign=top;spacingLeft=4;spacingRight=4;overflow=hidden;rotatable=0;points=[[0,0.5],[1,0.5]];portConstraint=eastwest;" parent="46" vertex="1">
                    <mxGeometry y="26" width="210" height="74" as="geometry"/>
                </mxCell>
                <mxCell id="48" value="" style="line;strokeWidth=1;fillColor=none;align=left;verticalAlign=middle;spacingTop=-1;spacingLeft=3;spacingRight=3;rotatable=0;labelPosition=right;points=[];portConstraint=eastwest;" parent="46" vertex="1">
                    <mxGeometry y="100" width="210" height="8" as="geometry"/>
                </mxCell>
                <mxCell id="49" value="+ Alta()&#10;+ Modificación()&#10;+ Baja()&#10;+ Consulta()" style="text;strokeColor=none;fillColor=none;align=left;verticalAlign=top;spacingLeft=4;spacingRight=4;overflow=hidden;rotatable=0;points=[[0,0.5],[1,0.5]];portConstraint=eastwest;" parent="46" vertex="1">
                    <mxGeometry y="108" width="210" height="82" as="geometry"/>
                </mxCell>
                <mxCell id="52" value="" style="endArrow=diamondThin;endFill=1;endSize=24;html=1;exitX=1.019;exitY=1;exitDx=0;exitDy=0;exitPerimeter=0;entryX=0;entryY=1;entryDx=0;entryDy=0;entryPerimeter=0;" parent="1" source="3" target="7" edge="1">
                    <mxGeometry width="160" relative="1" as="geometry">
                        <mxPoint x="250" y="279.5" as="sourcePoint"/>
                        <mxPoint x="410" y="279.5" as="targetPoint"/>
                    </mxGeometry>
                </mxCell>
                <mxCell id="53" value="" style="endArrow=diamondThin;endFill=1;endSize=24;html=1;exitX=0.991;exitY=-0.061;exitDx=0;exitDy=0;exitPerimeter=0;entryX=0.013;entryY=0.66;entryDx=0;entryDy=0;entryPerimeter=0;" parent="1" source="9" target="19" edge="1">
                    <mxGeometry width="160" relative="1" as="geometry">
                        <mxPoint x="603.04" y="230" as="sourcePoint"/>
                        <mxPoint x="750" y="230" as="targetPoint"/>
                    </mxGeometry>
                </mxCell>
                <mxCell id="54" value="Inscripcion-curso" style="swimlane;fontStyle=0;childLayout=stackLayout;horizontal=1;startSize=26;fillColor=none;horizontalStack=0;resizeParent=1;resizeParentMax=0;resizeLast=0;collapsible=1;marginBottom=0;" parent="1" vertex="1">
                    <mxGeometry x="1010" y="212" width="140" height="78" as="geometry"/>
                </mxCell>
                <mxCell id="55" value="+ InscripcionID: INT" style="text;strokeColor=none;fillColor=none;align=left;verticalAlign=top;spacingLeft=4;spacingRight=4;overflow=hidden;rotatable=0;points=[[0,0.5],[1,0.5]];portConstraint=eastwest;" parent="54" vertex="1">
                    <mxGeometry y="26" width="140" height="26" as="geometry"/>
                </mxCell>
                <mxCell id="56" value="+ CursoID: INT" style="text;strokeColor=none;fillColor=none;align=left;verticalAlign=top;spacingLeft=4;spacingRight=4;overflow=hidden;rotatable=0;points=[[0,0.5],[1,0.5]];portConstraint=eastwest;" parent="54" vertex="1">
                    <mxGeometry y="52" width="140" height="26" as="geometry"/>
                </mxCell>
                <mxCell id="58" value="" style="endArrow=none;dashed=1;html=1;entryX=0;entryY=0.5;entryDx=0;entryDy=0;" parent="1" target="55" edge="1">
                    <mxGeometry width="50" height="50" relative="1" as="geometry">
                        <mxPoint x="840" y="250" as="sourcePoint"/>
                        <mxPoint x="1080" y="330" as="targetPoint"/>
                    </mxGeometry>
                </mxCell>
                <mxCell id="59" value="" style="endArrow=diamondThin;endFill=1;endSize=24;html=1;entryX=0.5;entryY=0;entryDx=0;entryDy=0;" parent="1" source="21" target="27" edge="1">
                    <mxGeometry width="160" relative="1" as="geometry">
                        <mxPoint x="610" y="250" as="sourcePoint"/>
                        <mxPoint x="770" y="250" as="targetPoint"/>
                    </mxGeometry>
                </mxCell>
                <mxCell id="60" value="" style="endArrow=diamondThin;endFill=0;endSize=24;html=1;entryX=0.514;entryY=0.988;entryDx=0;entryDy=0;entryPerimeter=0;exitX=1.005;exitY=0.973;exitDx=0;exitDy=0;exitPerimeter=0;" parent="1" source="37" target="30" edge="1">
                    <mxGeometry width="160" relative="1" as="geometry">
                        <mxPoint x="730" y="660" as="sourcePoint"/>
                        <mxPoint x="890" y="660" as="targetPoint"/>
                        <Array as="points">
                            <mxPoint x="843" y="658"/>
                        </Array>
                    </mxGeometry>
                </mxCell>
                <mxCell id="66" value="" style="endArrow=diamondThin;endFill=0;endSize=24;html=1;entryX=0.51;entryY=1.022;entryDx=0;entryDy=0;entryPerimeter=0;exitX=-0.005;exitY=-0.034;exitDx=0;exitDy=0;exitPerimeter=0;" parent="1" source="49" target="30" edge="1">
                    <mxGeometry width="160" relative="1" as="geometry">
                        <mxPoint x="870" y="630" as="sourcePoint"/>
                        <mxPoint x="1030" y="630" as="targetPoint"/>
                        <Array as="points">
                            <mxPoint x="840" y="650"/>
                        </Array>
                    </mxGeometry>
                </mxCell>
                <mxCell id="67" value="&lt;b&gt;&lt;font style=&quot;font-size: 20px&quot;&gt;*&lt;/font&gt;&lt;/b&gt;" style="text;html=1;align=center;verticalAlign=middle;resizable=0;points=[];autosize=1;" vertex="1" parent="1">
                    <mxGeometry x="1040" y="620" width="20" height="20" as="geometry"/>
                </mxCell>
                <mxCell id="68" value="&lt;b&gt;&lt;font style=&quot;font-size: 17px&quot;&gt;1&lt;/font&gt;&lt;/b&gt;" style="text;html=1;align=center;verticalAlign=middle;resizable=0;points=[];autosize=1;" vertex="1" parent="1">
                    <mxGeometry x="860" y="520" width="20" height="20" as="geometry"/>
                </mxCell>
            </root>
        </mxGraphModel>
    </diagram>
</mxfile>